<?xml version="1.0" encoding="utf-8"?>
<!-- Generator: Adobe Illustrator 19.1.0, SVG Export Plug-In . SVG Version: 6.00 Build 0)  -->
<svg version="1.1" id="Layer_1" xmlns="http://www.w3.org/2000/svg" xmlns:xlink="http://www.w3.org/1999/xlink" x="0px" y="0px"
	 viewBox="0 0 56.7 56.7" style="enable-background:new 0 0 56.7 56.7;" xml:space="preserve">
<style type="text/css">
	.st0{fill:#FFFFFF;}
	.st1{fill:#35C2D9;stroke:#231F20;stroke-width:0.3;stroke-miterlimit:10;}
	.st2{fill:none;stroke:#000000;stroke-width:3;stroke-miterlimit:10;}
</style>
<g id="Vit_bakgrund">
</g>
<g id="Klocka">
</g>
<g>
	<circle class="st0" cx="28.3" cy="28.3" r="26.1"/>
	<polygon class="st1" points="44.6,37.7 28.3,55.3 12.4,37.7 21.7,37.7 21.7,11.2 35,11.2 35,37.7 	"/>
	<circle class="st2" cx="28.3" cy="28.3" r="26.4"/>
	<g>
		<path d="M28.3,28.5c0,0-1.4-0.5-3.4-1.3c-1-0.4-2.2-0.9-3.5-1.4c-1.3-0.5-2.6-1.1-4-1.6c-1.3-0.6-2.8-1-4-1.6
			c-1.2-0.6-2.3-1.3-3.2-2c-0.9-0.7-1.6-1.3-2.1-1.8C7.6,18.3,7.3,18,7.3,18l0.1-0.3c0,0,0.4,0,1.1,0.1c0.7,0.1,1.6,0.3,2.7,0.6
			c1.1,0.3,2.3,0.7,3.5,1.4c1.2,0.6,2.4,1.5,3.7,2.2c1.3,0.7,2.5,1.5,3.7,2.2c1.2,0.7,2.3,1.4,3.2,2c1.9,1.2,3.1,2,3.1,2L28.3,28.5z
			"/>
	</g>
	<g>
		<path d="M28.3,28.2c0,0,0.7-0.5,1.7-1.2c0.5-0.3,1.1-0.8,1.8-1.2c0.7-0.4,1.4-0.8,2.1-1.3c0.7-0.4,1.4-1,2.1-1.3
			c0.7-0.3,1.4-0.4,2.1-0.5c0.7-0.1,1.2,0,1.6,0c0.4,0.1,0.7,0.1,0.7,0.1l0.1,0.3c0,0-0.1,0.2-0.4,0.6c-0.2,0.3-0.6,0.8-1.1,1.2
			c-0.5,0.4-1.1,0.9-1.8,1.2c-0.7,0.3-1.6,0.4-2.4,0.6c-0.8,0.2-1.6,0.5-2.3,0.7c-0.8,0.2-1.5,0.4-2.1,0.5c-1.2,0.3-2,0.5-2,0.5
			L28.3,28.2z"/>
	</g>
	<g>
		<path d="M28.3,28.3c0,0,3.4-4.5,6.8-8.9c0.8-1.1,1.7-2.2,2.5-3.3c0.8-1,1.6-1.9,2.4-2.7c0.7-0.8,1.3-1.4,1.8-1.8
			c0.4-0.4,0.7-0.7,0.7-0.7l0.1,0.1c0,0-0.2,0.3-0.5,0.8c-0.3,0.5-0.8,1.2-1.4,2.1c-0.6,0.9-1.3,1.8-2.2,2.9c-0.8,1-1.8,2.1-2.7,3.1
			C32.1,24.2,28.4,28.4,28.3,28.3L28.3,28.3z"/>
	</g>
	<g>
		<path d="M28.3,1.9c0,0,0.2,0.2,0.3,0.6c0.1,0.4,0.2,0.9,0.2,1.4c0,0.5-0.1,1-0.2,1.4c-0.1,0.4-0.3,0.6-0.3,0.6s-0.2-0.2-0.3-0.6
			c-0.1-0.4-0.2-0.9-0.2-1.4c0-0.5,0.1-1,0.2-1.4C28.2,2.2,28.3,1.9,28.3,1.9z"/>
	</g>
	<g>
		<path d="M28.3,50.7c0,0,0.2,0.2,0.3,0.6c0.1,0.4,0.2,0.9,0.2,1.4c0,0.5-0.1,1-0.2,1.4c-0.1,0.4-0.3,0.6-0.3,0.6s-0.2-0.2-0.3-0.6
			c-0.1-0.4-0.2-0.9-0.2-1.4c0-0.5,0.1-1,0.2-1.4C28.2,51,28.3,50.7,28.3,50.7z"/>
	</g>
	<g>
		<path d="M50.8,28.3c0,0,0.2-0.2,0.6-0.3c0.4-0.1,0.9-0.2,1.4-0.2c0.5,0,1,0.1,1.4,0.2c0.4,0.1,0.6,0.3,0.6,0.3s-0.2,0.2-0.6,0.3
			c-0.4,0.1-0.9,0.2-1.4,0.2c-0.5,0-1-0.1-1.4-0.2C51,28.5,50.8,28.3,50.8,28.3z"/>
	</g>
	<g>
		<path d="M1.9,28.3c0,0,0.2-0.2,0.6-0.3c0.4-0.1,0.9-0.2,1.4-0.2c0.5,0,1,0.1,1.4,0.2c0.4,0.1,0.6,0.3,0.6,0.3s-0.2,0.2-0.6,0.3
			c-0.4,0.1-0.9,0.2-1.4,0.2c-0.5,0-1-0.1-1.4-0.2C2.2,28.5,1.9,28.3,1.9,28.3z"/>
	</g>
</g>
</svg>
