<?xml version="1.0" encoding="utf-8"?>
<!-- Generator: Adobe Illustrator 19.1.0, SVG Export Plug-In . SVG Version: 6.00 Build 0)  -->
<svg version="1.1" id="Layer_1" xmlns="http://www.w3.org/2000/svg" xmlns:xlink="http://www.w3.org/1999/xlink" x="0px" y="0px"
	 viewBox="0 0 850.4 850.4" style="enable-background:new 0 0 850.4 850.4;" xml:space="preserve">
<style type="text/css">
	.st0{fill:#9F2214;stroke:#000000;stroke-width:7;stroke-miterlimit:10;}
	.st1{fill:url(#SVGID_1_);}
	.st2{fill:none;stroke:#000000;stroke-width:25;stroke-miterlimit:10;}
	.st3{fill:url(#SVGID_2_);stroke:#000000;stroke-width:30;stroke-miterlimit:10;}
	.st4{fill:none;stroke:#414042;stroke-width:23;stroke-miterlimit:10;}
	.st5{fill:#414042;stroke:#000000;stroke-width:11;stroke-miterlimit:10;}
	.st6{fill:none;stroke:#414042;stroke-width:23;stroke-linecap:round;stroke-miterlimit:10;}
</style>
<path class="st0" d="M568.2,240.2v97.9c0,24.3-19.6,44.1-44.1,44.1h-142v142c0,24.4-19.8,44.2-44.2,44.2h-97.8
	c-24.4,0-44.2-19.8-44.2-44.2v-142h-142c-24.4,0-44.2-19.8-44.2-44.1v-97.9c0-24.4,19.8-44.1,44.2-44.1h142V54
	c0-24.3,19.8-44.1,44.2-44.1h97.8c24.4,0,44.2,19.8,44.2,44.1v142.2h142C548.6,196.2,568.2,215.8,568.2,240.2z"/>
<g id="XMLID_1_">
	<g>
		<linearGradient id="SVGID_1_" gradientUnits="userSpaceOnUse" x1="336.5488" y1="503.7697" x2="773.96" y2="941.1808">
			<stop  offset="0.1882" style="stop-color:#FFFFFF"/>
			<stop  offset="0.3461" style="stop-color:#F1F1F2"/>
			<stop  offset="0.5806" style="stop-color:#DADBDD"/>
			<stop  offset="0.7518" style="stop-color:#B6B8BA"/>
			<stop  offset="1" style="stop-color:#808285"/>
		</linearGradient>
		<path class="st1" d="M840.7,791.2v1.2c0,58.8-605.1,69.1-605.1,0v-1.2C320.7,274.8,780,289.2,840.7,791.2z"/>
	</g>
	<g>
		<path class="st2" d="M235.6,791.2c85.1-516.4,544.4-502,605.1,0"/>
		<path class="st2" d="M235.6,792.4c0,69.1,605.1,58.8,605.1,0"/>
	</g>
</g>
<linearGradient id="SVGID_2_" gradientUnits="userSpaceOnUse" x1="438.5832" y1="154.006" x2="637.7298" y2="353.1525">
	<stop  offset="0.1882" style="stop-color:#FFFFFF"/>
	<stop  offset="0.3461" style="stop-color:#F1F1F2"/>
	<stop  offset="0.5806" style="stop-color:#DADBDD"/>
	<stop  offset="0.7518" style="stop-color:#B6B8BA"/>
	<stop  offset="1" style="stop-color:#808285"/>
</linearGradient>
<ellipse class="st3" cx="538.2" cy="253.6" rx="125.9" ry="154.3"/>
<g id="Layer_2">
	<line class="st4" x1="545.2" y1="641" x2="545.2" y2="719.7"/>
	<circle class="st5" cx="545.2" cy="750.6" r="31.7"/>
	<path class="st4" d="M588.1,548.2c0,44.2,7.4,99.4-42.9,99.4"/>
	<path class="st6" d="M666.4,446.2c-5.1,109.3-78.4,68.3-78.4,102"/>
	<path class="st4" d="M502.3,548.2c0,44.2-7.4,99.4,42.9,99.4"/>
	<path class="st6" d="M422.7,446.2c5.1,109.3,79.6,68.3,79.6,102"/>
</g>
</svg>
