<?xml version="1.0" encoding="utf-8"?>
<!-- Generator: Adobe Illustrator 19.1.0, SVG Export Plug-In . SVG Version: 6.00 Build 0)  -->
<svg version="1.1" id="Layer_1" xmlns="http://www.w3.org/2000/svg" xmlns:xlink="http://www.w3.org/1999/xlink" x="0px" y="0px"
	 viewBox="0 0 56.7 56.7" style="enable-background:new 0 0 56.7 56.7;" xml:space="preserve">
<style type="text/css">
	.st0{fill:#FFFFFF;}
	.st1{fill:#F0628F;stroke:#000000;stroke-width:0.3;stroke-linecap:round;stroke-miterlimit:10;}
	.st2{fill:none;stroke:#000000;stroke-width:3;stroke-miterlimit:10;}
</style>
<circle id="Bakgrund" class="st0" cx="28.3" cy="28.3" r="27.6"/>
<g id="Hjarta">
	<path class="st1" d="M27.6,47.5c-36.4-25.2-9.4-44.8,0.9-28.3C37.9,2.9,63.8,21.4,27.6,47.5z"/>
</g>
<g id="Klocka">
	<circle class="st2" cx="28.3" cy="28.3" r="26.7"/>
	<g>
		<path d="M28.3,28.5c0,0-1.4-0.5-3.5-1.3c-1-0.4-2.3-0.9-3.5-1.4c-1.3-0.5-2.7-1.1-4-1.7c-1.4-0.6-2.8-1-4.1-1.6
			c-1.2-0.6-2.3-1.3-3.2-2c-0.9-0.7-1.6-1.3-2.1-1.8c-0.5-0.5-0.7-0.8-0.7-0.8l0.1-0.3c0,0,0.4,0,1.1,0.1C9,17.8,9.9,18,11,18.3
			c1.1,0.3,2.3,0.8,3.6,1.4c1.2,0.6,2.4,1.5,3.7,2.3c1.3,0.8,2.6,1.5,3.7,2.2c1.2,0.7,2.3,1.4,3.2,2c1.9,1.2,3.1,2,3.1,2L28.3,28.5z
			"/>
	</g>
	<g>
		<path d="M28.3,28.2c0,0,0.7-0.5,1.8-1.2c0.5-0.3,1.1-0.8,1.8-1.2c0.7-0.4,1.4-0.8,2.1-1.3c0.7-0.4,1.4-1,2.1-1.3
			c0.7-0.3,1.5-0.4,2.1-0.5c0.7-0.1,1.2-0.1,1.7,0c0.4,0.1,0.7,0.1,0.7,0.1l0.1,0.3c0,0-0.1,0.2-0.4,0.6c-0.2,0.4-0.6,0.8-1.1,1.2
			c-0.5,0.4-1.1,0.9-1.8,1.2c-0.7,0.3-1.6,0.4-2.4,0.6c-0.8,0.2-1.6,0.5-2.4,0.7c-0.8,0.2-1.5,0.4-2.1,0.5c-1.2,0.3-2.1,0.5-2.1,0.5
			L28.3,28.2z"/>
	</g>
	<g>
		<path d="M28.3,28.3c0,0,3.4-4.5,6.9-9c0.9-1.1,1.7-2.3,2.5-3.3c0.8-1,1.7-2,2.4-2.7c0.7-0.8,1.3-1.4,1.8-1.8
			c0.4-0.4,0.7-0.7,0.7-0.7l0.1,0.1c0,0-0.2,0.3-0.5,0.8c-0.3,0.5-0.8,1.3-1.4,2.1c-0.6,0.9-1.4,1.8-2.2,2.9c-0.8,1-1.8,2.1-2.7,3.1
			C32.1,24.1,28.4,28.4,28.3,28.3L28.3,28.3z"/>
	</g>
	<g>
		<path d="M28.3,1.6c0,0,0.2,0.3,0.3,0.6c0.1,0.4,0.2,0.9,0.2,1.4c0,0.5-0.1,1-0.2,1.4c-0.1,0.4-0.3,0.6-0.3,0.6S28.2,5.4,28.1,5
			c-0.1-0.4-0.2-0.9-0.2-1.4c0-0.5,0.1-1,0.2-1.4C28.2,1.9,28.3,1.6,28.3,1.6z"/>
	</g>
	<g>
		<path d="M28.3,51c0,0,0.2,0.3,0.3,0.6c0.1,0.4,0.2,0.9,0.2,1.4c0,0.5-0.1,1-0.2,1.4c-0.1,0.4-0.3,0.6-0.3,0.6s-0.2-0.3-0.3-0.6
			c-0.1-0.4-0.2-0.9-0.2-1.4c0-0.5,0.1-1,0.2-1.4C28.2,51.3,28.3,51,28.3,51z"/>
	</g>
	<g>
		<path d="M51,28.3c0,0,0.3-0.2,0.6-0.3c0.4-0.1,0.9-0.2,1.4-0.2c0.5,0,1,0.1,1.4,0.2c0.4,0.1,0.6,0.3,0.6,0.3s-0.3,0.2-0.6,0.3
			c-0.4,0.1-0.9,0.2-1.4,0.2c-0.5,0-1-0.1-1.4-0.2C51.3,28.5,51,28.3,51,28.3z"/>
	</g>
	<g>
		<path d="M1.6,28.3c0,0,0.3-0.2,0.6-0.3c0.4-0.1,0.9-0.2,1.4-0.2c0.5,0,1,0.1,1.4,0.2c0.4,0.1,0.6,0.3,0.6,0.3S5.4,28.5,5,28.6
			c-0.4,0.1-0.9,0.2-1.4,0.2c-0.5,0-1-0.1-1.4-0.2C1.9,28.5,1.6,28.3,1.6,28.3z"/>
	</g>
</g>
</svg>
